<svg version="1.1" xmlns="http://www.w3.org/2000/svg" xmlns:xlink="http://www.w3.org/1999/xlink" width="512" height="512" viewBox="0,0,512,512"><g transform="translate(16,76)"><g data-paper-data="{&quot;isPaintingLayer&quot;:true}" fill="#0500ff" fill-rule="nonzero" stroke="none" stroke-width="1" stroke-linecap="butt" stroke-linejoin="miter" stroke-miterlimit="10" stroke-dasharray="" stroke-dashoffset="0" style="mix-blend-mode: normal"><path d="M464,-76c17.7,0 32,14.3 32,32v160c0,17.7 -14.3,32 -32,32c-17.7,0 -32,-14.3 -32,-32v-82.7l-201.3,201.4c-12.5,12.5 -32.8,12.5 -45.3,0c-12.5,-12.5 -12.5,-32.8 0,-45.3l201.3,-201.4h-82.7c-17.7,0 -32,-14.3 -32,-32c0,-17.7 14.3,-32 32,-32zM176,-44c17.7,0 32,14.3 32,32c0,17.7 -14.3,32 -32,32h-112c-8.8,0 -16,7.2 -16,16v320c0,8.8 7.2,16 16,16h320c8.8,0 16,-7.2 16,-16v-112c0,-17.7 14.3,-32 32,-32c17.7,0 32,14.3 32,32v112c0,44.2 -35.8,80 -80,80h-320c-44.2,0 -80,-35.8 -80,-80v-320c0,-44.2 35.8,-80 80,-80z"/></g></g></svg>